<!DOCTYPE svg PUBLIC "-//W3C//DTD SVG 1.1//EN" "http://www.w3.org/Graphics/SVG/1.1/DTD/svg11.dtd">

<!-- Uploaded to: SVG Repo, www.svgrepo.com, Transformed by: SVG Repo Mixer Tools -->
<svg width="24px" height="24px" viewBox="-4.8 -4.8 33.60 33.60" fill="none" xmlns="http://www.w3.org/2000/svg" stroke="rgba(0, 0, 0, 0.60)" stroke-width="0.00024000000000000003">

<g id="SVGRepo_bgCarrier" stroke-width="0"/>

<g id="SVGRepo_tracerCarrier" stroke-linecap="round" stroke-linejoin="round"/>

<g id="SVGRepo_iconCarrier"> <path fill-rule="evenodd" clip-rule="evenodd" d="M3 3C3 1.89543 3.89543 1 5 1H17C19.2091 1 21 2.79086 21 5V19C21 21.2091 19.2091 23 17 23H5C3.89543 23 3 22.1046 3 21V3ZM6 3C5.44771 3 5 3.44772 5 4V20C5 20.5523 5.44772 21 6 21H8V3H6ZM10 3V21H17C18.1046 21 19 20.1046 19 19V5C19 3.89543 18.1046 3 17 3H10Z" fill="rgba(0, 0, 0, 0.60)"/> </g>

</svg>